<?xml version="1.0" encoding="UTF-8"?>
<svg version="1.1" xmlns="http://www.w3.org/2000/svg" width="512" height="512">
<path d="M0 0 C1.37392924 -0.00542535 2.74785266 -0.01255033 4.12176514 -0.02124023 C7.84565148 -0.03944496 11.56909343 -0.03241358 15.29298735 -0.01972389 C19.20661796 -0.00956089 23.1202118 -0.01900059 27.03384399 -0.02526855 C33.61605608 -0.03254401 40.19808864 -0.02296904 46.78027344 -0.00390625 C54.35216432 0.01777197 61.92362278 0.01087712 69.49550283 -0.01121187 C76.02154709 -0.02947752 82.5474625 -0.03186747 89.07352412 -0.0214572 C92.95958359 -0.01527141 96.84544137 -0.01424712 100.73148727 -0.02760315 C124.34500023 -0.09759857 145.19537587 0.04111605 163.32666016 17.31445312 C164.42107422 18.405 164.42107422 18.405 165.53759766 19.51757812 C166.38451172 20.3296875 166.38451172 20.3296875 167.24853516 21.15820312 C176.53399206 30.88582465 181.46587564 45.25456485 181.55078125 58.58789062 C181.42619016 62.59002259 181.05234184 66.54846636 180.53759766 70.51757812 C181.44638672 70.64712891 181.44638672 70.64712891 182.37353516 70.77929688 C194.33969318 72.78592953 203.26748057 78.02961271 210.60009766 87.64257812 C220.78550374 102.16261314 225.02292104 118.86111516 222.04833984 136.40283203 C220.7304616 143.01429296 219.11573484 149.54442157 217.42724609 156.06982422 C216.53388216 159.53197718 215.67880175 163.00210797 214.82666016 166.47460938 C210.72314362 182.84318458 206.07317783 196.77000454 194.53759766 209.51757812 C193.86083984 210.28714844 193.18408203 211.05671875 192.48681641 211.84960938 C179.75028793 225.51751105 161.17534113 233.70574839 142.57312012 234.67147827 C134.41557181 234.88722953 126.25893868 234.79156761 118.10009766 234.70507812 C115.61507974 234.69000169 113.13005296 234.67631853 110.64501953 234.6640625 C104.60901609 234.63129738 98.57334921 234.58133352 92.53759766 234.51757812 C92.43994614 235.1189006 92.34229462 235.72022308 92.24168396 236.33976746 C90.75023198 245.04192466 88.647101 253.57109589 86.51025391 262.13085938 C86.11663501 263.71499697 85.72311779 265.29915983 85.32969666 266.88334656 C84.50931856 270.18270496 83.68608253 273.48133509 82.86108398 276.77954102 C81.80709923 280.99517374 80.76289242 285.21316274 79.72109318 289.43182087 C78.91349429 292.69561834 78.09946188 295.95778606 77.28362846 299.21953392 C76.89583885 300.77421846 76.51032298 302.32947206 76.12718391 303.88530922 C75.5911035 306.0591532 75.0460511 308.23056183 74.4987793 310.40161133 C74.19170547 311.63418167 73.88463165 312.86675201 73.56825256 314.13667297 C72.05466821 319.101754 70.78645624 322.46359229 66.76063538 325.86122131 C63.16933184 327.70683424 60.9826124 328.01869497 56.96899414 328.01928711 C55.04185829 328.03335854 55.04185829 328.03335854 53.07579041 328.04771423 C51.68675057 328.03723636 50.29771722 328.02586741 48.90869141 328.01367188 C47.47192817 328.013827 46.03516452 328.0153183 44.59840393 328.01808167 C41.59495424 328.01946253 38.59198392 328.00695935 35.58862305 327.98413086 C31.74624508 327.95572085 27.90466138 327.95849436 24.06222439 327.97122097 C21.09814208 327.97818754 18.13424219 327.97037826 15.17018318 327.95796394 C13.7536597 327.95346071 12.33711656 327.95310277 10.92059135 327.95702934 C8.9392968 327.95995147 6.95800632 327.94123899 4.97680664 327.92163086 C3.28853004 327.91352638 3.28853004 327.91352638 1.56614685 327.90525818 C-3.05387561 327.31385601 -6.49518438 325.07823969 -9.46240234 321.51757812 C-11.47034551 315.49374862 -10.3072147 310.05819964 -8.71240234 304.05273438 C-8.53483398 303.37456161 -8.35726562 302.69638885 -8.17431641 301.99766541 C-7.61167632 299.85626182 -7.03726971 297.71822784 -6.46240234 295.58007812 C-6.07619987 294.11869703 -5.69077565 292.65711002 -5.30615234 291.1953125 C-4.36721689 287.63364383 -3.41771069 284.07489489 -2.46240234 280.51757812 C-3.18823517 280.52868118 -3.91406799 280.53978424 -4.66189575 280.55122375 C-11.51760622 280.65160043 -18.37320621 280.72763148 -25.22946358 280.77663898 C-28.75404449 280.80268234 -32.27801592 280.83798083 -35.80224609 280.89477539 C-39.85829361 280.95972791 -43.91370558 280.9838017 -47.97021484 281.00585938 C-49.22980011 281.0316658 -50.48938538 281.05747223 -51.78713989 281.08406067 C-61.55676555 281.08718536 -61.55676555 281.08718536 -65.24316406 278.17456055 C-69.10678407 273.54884255 -68.77784622 269.26032453 -68.46240234 263.51757812 C-68.02696495 259.94106408 -67.39307933 256.41262526 -66.73625183 252.87080383 C-66.55052512 251.83420866 -66.36479841 250.79761348 -66.17344362 249.72960633 C-65.55225592 246.27382063 -64.91982832 242.8201914 -64.28735352 239.36645508 C-63.83837245 236.88240136 -63.39006085 234.39822656 -62.94236755 231.91394043 C-61.85266531 225.87810718 -60.75554695 219.84366372 -59.65468403 213.80985729 C-58.76002494 208.905484 -57.86837419 204.00057269 -56.9788456 199.09526634 C-56.85204515 198.3960517 -56.7252447 197.69683705 -56.59460181 196.97643408 C-56.33699168 195.55584224 -56.07938689 194.13524943 -55.82178739 192.71465566 C-53.40867365 179.40914613 -50.9856676 166.10545263 -48.55938802 152.80233856 C-46.47871627 141.39273961 -44.40714298 129.98151868 -42.34204102 118.5690918 C-39.94191608 105.30522539 -37.53572339 92.04248223 -35.12018377 78.78141373 C-34.8625817 77.36709178 -34.6049892 75.95276808 -34.34740639 74.53844261 C-34.22067945 73.84262188 -34.09395252 73.14680114 -33.96338537 72.42989493 C-33.07162407 67.53104047 -32.18424653 62.63140372 -31.29860497 57.73143959 C-30.10647666 51.13640647 -28.90462285 44.54321763 -27.69619179 37.95114899 C-27.25399735 35.53057516 -26.81495707 33.1094227 -26.37928772 30.68766594 C-25.78455338 27.38461839 -25.17849436 24.08384572 -24.56950378 20.78340149 C-24.39925869 19.8226077 -24.22901359 18.8618139 -24.05360955 17.87190515 C-22.91268085 11.77840414 -21.63507884 6.68706105 -17.11630249 2.17492676 C-12.03087038 -0.82660953 -5.69660316 -0.03600428 0 0 Z " fill="#273593" transform="translate(184.46240234375,10.482421875)"/>
<path d="M0 0 C10.57191709 0.78310497 19.35930976 4.56618766 27 12 C38.78960662 25.68360479 44.61749032 42.37335889 43.30175781 60.40771484 C42.30991829 68.92822619 40.03431708 77.26387199 37.88964844 85.55224609 C36.99628451 89.01439906 36.1412041 92.48452985 35.2890625 95.95703125 C31.18554596 112.32560646 26.53558017 126.25242642 15 139 C14.32324219 139.76957031 13.64648438 140.53914062 12.94921875 141.33203125 C0.21269028 154.99993292 -18.36225653 163.18817027 -36.96447754 164.15390015 C-45.12202585 164.36965141 -53.27865898 164.27398948 -61.4375 164.1875 C-63.92251792 164.17242357 -66.4075447 164.15874041 -68.89257812 164.14648438 C-74.92858156 164.11371925 -80.96424845 164.06375539 -87 164 C-87.09765152 164.60132248 -87.19530304 165.20264496 -87.2959137 165.82218933 C-88.78736567 174.52434653 -90.89049666 183.05351777 -93.02734375 191.61328125 C-93.42096265 193.19741885 -93.81447987 194.78158171 -94.207901 196.36576843 C-95.0282791 199.66512684 -95.85151513 202.96375696 -96.67651367 206.26196289 C-97.73049843 210.47759561 -98.77470523 214.69558462 -99.81650448 218.91424274 C-100.62410337 222.17804021 -101.43813577 225.44020793 -102.25396919 228.7019558 C-102.64175881 230.25664033 -103.02727468 231.81189394 -103.41041374 233.36773109 C-103.94649416 235.54157508 -104.49154655 237.71298371 -105.03881836 239.8840332 C-105.34589218 241.11660355 -105.652966 242.34917389 -105.96934509 243.61909485 C-107.48292944 248.58417587 -108.75114142 251.94601416 -112.77696228 255.34364319 C-116.36826582 257.18925611 -118.55498526 257.50111684 -122.56860352 257.50170898 C-124.49573936 257.51578041 -124.49573936 257.51578041 -126.46180725 257.53013611 C-127.85084708 257.51965824 -129.23988044 257.50828928 -130.62890625 257.49609375 C-132.06566949 257.49624888 -133.50243314 257.49774017 -134.93919373 257.50050354 C-137.94264341 257.50188441 -140.94561374 257.48938123 -143.94897461 257.46655273 C-147.79135258 257.43814272 -151.63293627 257.44091624 -155.47537327 257.45364285 C-158.43945558 257.46060941 -161.40335546 257.45280014 -164.36741447 257.44038582 C-165.78393796 257.43588258 -167.2004811 257.43552464 -168.6170063 257.43945122 C-170.59830085 257.44237335 -172.57959134 257.42366087 -174.56079102 257.40405273 C-176.24906761 257.39594826 -176.24906761 257.39594826 -177.97145081 257.38768005 C-182.59147327 256.79627789 -186.03278203 254.56066156 -189 251 C-191.00794317 244.97617049 -189.84481235 239.54062151 -188.25 233.53515625 C-188.07243164 232.85698349 -187.89486328 232.17881073 -187.71191406 231.48008728 C-187.14927398 229.33868369 -186.57486736 227.20064972 -186 225.0625 C-185.61379752 223.6011189 -185.22837331 222.13953189 -184.84375 220.67773438 C-183.90481455 217.11606571 -182.95530835 213.55731676 -182 210 C-180.04707031 209.96132813 -180.04707031 209.96132813 -178.0546875 209.921875 C-176.32809244 209.86557299 -174.60153124 209.80822613 -172.875 209.75 C-171.59109375 209.72873047 -171.59109375 209.72873047 -170.28125 209.70703125 C-164.8042362 209.49637687 -160.9445483 209.14353145 -157 205 C-153.22682258 195.34669086 -151.14906288 184.88849486 -148.70703125 174.83203125 C-148.31198199 173.21862594 -147.91652243 171.60532104 -147.52067566 169.99211121 C-146.49042226 165.79015525 -145.46429409 161.58720494 -144.43951416 157.38391113 C-142.790002 150.61919319 -141.1362235 143.85552568 -139.47839928 137.09284019 C-138.90181488 134.7367937 -138.32832841 132.38000793 -137.75508118 130.02314758 C-137.40430694 128.58937649 -137.05341718 127.15563365 -136.70239258 125.72192383 C-136.39690994 124.46873856 -136.09142731 123.21555328 -135.77668762 121.9243927 C-135 119 -135 119 -134 117 C-133.18005806 116.99453156 -133.18005806 116.99453156 -132.34355164 116.98895264 C-126.54967733 116.94648386 -120.75654877 116.87671357 -114.96313477 116.79248047 C-112.81347182 116.7646023 -110.66371268 116.74322673 -108.51391602 116.72900391 C-77.99883695 116.51526298 -53.31081245 110.20625449 -30.625 88.7734375 C-11.58243484 68.65406062 -6.48475328 44.25667707 -2.9296875 17.63671875 C-2.1306242 11.72107268 -1.13124151 5.86060403 0 0 Z " fill="#03A8F3" transform="translate(364,81)"/>
<path d="M0 0 C0.78667557 -0.00524185 1.57335114 -0.0104837 2.38386536 -0.0158844 C4.04374009 -0.02228374 5.70366031 -0.02099471 7.36352539 -0.01245117 C9.87015222 -0.00398856 12.37445995 -0.03265166 14.88085938 -0.06445312 C26.89499698 -0.11826551 36.99480435 0.9366681 46.0546875 9.64453125 C52.40344737 16.51860222 54.25944622 23.6632615 54.0859375 32.84765625 C52.86663704 44.38701525 49.76345696 57.51238826 40.5703125 65.2265625 C33.7059949 70.13297627 26.98466514 71.71054734 18.5859375 71.84765625 C17.84117661 71.8670224 17.09641571 71.88638855 16.3290863 71.90634155 C13.97601376 71.96559531 11.62289082 72.01230289 9.26953125 72.05859375 C7.66339142 72.0968236 6.057271 72.13587817 4.45117188 72.17578125 C0.536618 72.27125125 -3.37803166 72.35547918 -7.29296875 72.43359375 C-7.57495117 73.58883545 -7.85693359 74.74407715 -8.14746094 75.93432617 C-9.20045699 80.23336177 -10.27052094 84.52799759 -11.34570312 88.8215332 C-11.80803069 90.67780428 -12.2657667 92.53522539 -12.71875 94.39379883 C-13.37196487 97.07040404 -14.04176714 99.74239212 -14.71484375 102.4140625 C-14.9129364 103.24133347 -15.11102905 104.06860443 -15.31512451 104.92094421 C-16.51731766 109.61431231 -17.81095593 112.88216627 -21.29296875 116.43359375 C-24.98741079 118.34064379 -28.42607081 118.58657574 -32.48046875 117.87109375 C-36.0717367 116.0355568 -37.967701 114.78471491 -40.29296875 111.43359375 C-41.5561812 102.79654254 -39.16803002 94.39199886 -37.0390625 86.08984375 C-36.69602275 84.71320128 -36.35409353 83.33628167 -36.01319885 81.95910645 C-35.11488302 78.34331477 -34.20109442 74.73161089 -33.28399658 71.12054443 C-32.37803581 67.54115527 -31.48770354 63.95788829 -30.59570312 60.375 C-29.02629052 54.08148228 -27.43780504 47.79300625 -25.83629417 41.50758362 C-24.81251566 37.48753178 -23.79899906 33.46510408 -22.79504681 29.44005585 C-22.0207138 26.34255971 -21.23601859 23.24768537 -20.453125 20.15234375 C-20.03890541 18.47730774 -20.03890541 18.47730774 -19.61631775 16.76843262 C-19.35371658 15.73947876 -19.09111542 14.7105249 -18.82055664 13.65039062 C-18.59670792 12.75864136 -18.37285919 11.86689209 -18.14222717 10.94812012 C-16.75301054 6.83485877 -15.25622372 4.07790762 -11.6237793 1.64819336 C-7.68464152 0.21176366 -4.13817732 -0.01633141 0 0 Z M3.70703125 24.43359375 C2.86792736 27.70297461 2.03674792 30.97431909 1.20703125 34.24609375 C0.96855469 35.17486328 0.73007812 36.10363281 0.484375 37.06054688 C0.25878906 37.95322266 0.03320312 38.84589844 -0.19921875 39.765625 C-0.40869141 40.58780518 -0.61816406 41.40998535 -0.83398438 42.25708008 C-1.39613993 44.55210323 -1.39613993 44.55210323 -1.29296875 47.43359375 C2.62344836 47.54978139 6.53942226 47.62084029 10.45703125 47.68359375 C11.56820312 47.71710938 12.679375 47.750625 13.82421875 47.78515625 C14.89414062 47.79804688 15.9640625 47.8109375 17.06640625 47.82421875 C18.54318848 47.85563965 18.54318848 47.85563965 20.04980469 47.88769531 C23.45761986 47.30532337 24.58231995 46.10362241 26.70703125 43.43359375 C27.8609313 40.55654092 27.8609313 40.55654092 28.51953125 37.43359375 C28.90044922 35.88671875 28.90044922 35.88671875 29.2890625 34.30859375 C29.69854525 31.49196475 29.87660867 30.00555547 28.70703125 27.43359375 C25.70002293 24.67720462 23.76788299 24.06662695 19.72265625 24.140625 C18.78808594 24.15029297 17.85351562 24.15996094 16.890625 24.16992188 C15.92253906 24.19505859 14.95445313 24.22019531 13.95703125 24.24609375 C12.48169922 24.26639648 12.48169922 24.26639648 10.9765625 24.28710938 C8.5528271 24.32240649 6.1302098 24.37171321 3.70703125 24.43359375 Z " fill="#273493" transform="translate(40.29296875,359.56640625)"/>
<path d="M0 0 C1.19206055 -0.00855011 1.19206055 -0.00855011 2.40820312 -0.01727295 C4.09617785 -0.02673228 5.78417112 -0.03326063 7.47216797 -0.03710938 C10.02475605 -0.0467327 12.5765101 -0.07771124 15.12890625 -0.109375 C25.61584499 -0.17798018 35.80876055 -0.15234251 44.46484375 6.62109375 C50.83927627 12.93318463 54.31586112 20.48447853 54.5 29.453125 C54.308469 40.74148328 51.83024256 53.81877583 44.09375 62.4375 C36.46558232 69.06813806 29.95910241 71.36967448 20.015625 71.30078125 C19.24442322 71.2993663 18.47322144 71.29795135 17.6786499 71.29649353 C15.22322662 71.29091034 12.76789558 71.27836095 10.3125 71.265625 C8.64453257 71.26060783 6.97656371 71.2560453 5.30859375 71.25195312 C1.22652713 71.24094641 -2.85547081 71.22369336 -6.9375 71.203125 C-7.18274414 72.34942383 -7.42798828 73.49572266 -7.68066406 74.67675781 C-8.72353309 79.52890552 -9.82738897 84.36597455 -10.9375 89.203125 C-11.16244141 90.20279297 -11.38738281 91.20246094 -11.61914062 92.23242188 C-12.32571322 95.33316607 -13.06537242 98.42442772 -13.8125 101.515625 C-14.03244629 102.49926025 -14.25239258 103.48289551 -14.47900391 104.49633789 C-16.01919262 110.69519499 -17.48502059 113.74632433 -22.9375 117.203125 C-26.84087169 118.53193238 -28.60013755 118.30782369 -32.5625 117.078125 C-36.21528614 115.04879937 -37.94418322 113.87082787 -39.9375 110.203125 C-40.56392755 102.19979657 -38.71437942 95.13051688 -36.71875 87.4140625 C-36.37828463 86.06652305 -36.03874677 84.71874896 -35.70007324 83.37075806 C-34.8050986 79.81942894 -33.89732494 76.27149442 -32.98681641 72.72412109 C-32.09263474 69.2308514 -31.21088487 65.73445127 -30.328125 62.23828125 C-29.27682797 58.07648908 -28.22129477 53.91593472 -27.14819336 49.75970459 C-25.50126031 43.37762258 -23.87421443 36.99454616 -22.35483551 30.58068657 C-21.6734306 27.7122354 -20.97549774 24.84792742 -20.27586365 21.98387527 C-19.95002596 20.63063362 -19.63207917 19.27546387 -19.32264709 17.91837692 C-16.63738439 6.16057058 -16.63738439 6.16057058 -12.82226562 2.90771484 C-8.31977269 0.24722012 -5.15290741 0.02852811 0 0 Z M5.0625 24.203125 C3.14049529 29.68614456 1.53583949 35.07198369 0.375 40.765625 C0.12363281 41.98378906 -0.12773437 43.20195312 -0.38671875 44.45703125 C-0.56847656 45.36324219 -0.75023437 46.26945312 -0.9375 47.203125 C2.97902632 47.29026816 6.89530311 47.34356485 10.8125 47.390625 C11.92367187 47.41576172 13.03484375 47.44089844 14.1796875 47.46679688 C15.78457031 47.48129883 15.78457031 47.48129883 17.421875 47.49609375 C18.40639648 47.5118042 19.39091797 47.52751465 20.40527344 47.54370117 C23.50220638 47.14676793 24.82113087 46.33984373 27.0625 44.203125 C29.61177951 38.42353102 31.00660422 32.29465154 29.0625 26.203125 C26.1262031 24.24966514 23.77514087 23.96321935 20.296875 24.0078125 C19.40742188 24.01425781 18.51796875 24.02070313 17.6015625 24.02734375 C16.68117188 24.04410156 15.76078125 24.06085938 14.8125 24.078125 C13.40871094 24.09166016 13.40871094 24.09166016 11.9765625 24.10546875 C9.67161343 24.12898864 7.3671884 24.16185647 5.0625 24.203125 Z " fill="#02A9F4" transform="translate(318.9375,359.796875)"/>
<path d="M0 0 C2.04753723 0.02901369 4.09248047 0.02055924 6.14013672 0.00756836 C13.03488714 0.02149367 19.16360311 0.47352576 25.65136719 2.95385742 C27.72931257 3.74065699 27.72931257 3.74065699 30.17529297 2.15405273 C30.95904297 1.59717773 31.74279297 1.04030273 32.55029297 0.46655273 C36.53107422 -0.19691081 39.67543021 0.07772484 43.36279297 1.71655273 C46.21158963 3.99559006 48.28988192 5.96799812 48.93060303 9.65507507 C48.82643932 16.22860966 47.71816629 22.19726767 46.06591797 28.54858398 C45.6806192 30.07439339 45.6806192 30.07439339 45.28753662 31.63102722 C44.74529258 33.76448149 44.19704781 35.89641882 43.64306641 38.02685547 C42.79929007 41.28292284 41.98229381 44.54492904 41.16748047 47.80834961 C40.63521776 49.88883553 40.10141673 51.96892864 39.56591797 54.04858398 C39.20315765 55.50491997 39.20315765 55.50491997 38.83306885 56.99067688 C37.51499539 61.98025374 36.3264976 65.73567783 32.55029297 69.46655273 C27.8577613 71.80331952 23.58122948 71.42992356 18.55029297 70.46655273 C17.53708984 70.61608398 16.52388672 70.76561523 15.47998047 70.91967773 C0.28048092 73.03491624 -15.8172873 72.99925267 -28.44970703 63.46655273 C-35.1841393 57.58197234 -38.75835382 50.39804901 -39.79345703 41.51733398 C-40.17637615 29.31178699 -37.00120927 17.91728077 -28.85595703 8.65405273 C-20.62239593 0.88654226 -10.87919802 -0.16799336 0 0 Z M-11.52392578 26.67749023 C-14.35440928 30.77681116 -15.28667535 34.51038972 -15.44970703 39.46655273 C-14.14301436 42.60261514 -12.82572226 44.09053751 -10.44970703 46.46655273 C-6.67732499 46.92200775 -2.87140755 46.79057185 0.92529297 46.77905273 C1.97974609 46.79516602 3.03419922 46.8112793 4.12060547 46.82788086 C5.13638672 46.82852539 6.15216797 46.82916992 7.19873047 46.82983398 C8.59357666 46.83430542 8.59357666 46.83430542 10.01660156 46.83886719 C13.03500753 46.39532613 14.36858352 45.57403152 16.55029297 43.46655273 C18.19502685 39.10800794 19.15611399 35.11118059 18.55029297 30.46655273 C16.75035522 27.76664612 15.46651997 25.92466623 12.55029297 24.46655273 C9.12003154 24.1477777 5.68104771 24.14229058 2.23779297 24.09155273 C1.28710938 24.05416992 0.33642578 24.01678711 -0.64306641 23.97827148 C-5.28021943 23.91994252 -7.67542158 23.90969687 -11.52392578 26.67749023 Z " fill="#02A9F4" transform="translate(405.44970703125,406.533447265625)"/>
<path d="M0 0 C2.04753723 0.02901369 4.09248047 0.02055924 6.14013672 0.00756836 C13.04337166 0.02292327 19.08492628 0.43695427 25.51708984 3.11865234 C27.6809258 3.72609011 27.6809258 3.72609011 29.68359375 2.07397461 C30.29960449 1.54352539 30.91561523 1.01307617 31.55029297 0.46655273 C36.19994452 -0.47183149 39.78034815 0.07458083 43.98779297 2.21655273 C47.72592021 5.4988108 47.72592021 5.4988108 48.55029297 8.46655273 C48.93018783 15.15506193 47.71283741 20.89883858 46.03076172 27.35327148 C45.7715242 28.37330765 45.51228668 29.39334381 45.24519348 30.44429016 C44.69750214 32.58938123 44.14506237 34.73326493 43.58813477 36.87597656 C42.73859741 40.15095159 41.9080859 43.43033995 41.07958984 46.71069336 C40.54360875 48.80017581 40.00653656 50.88937875 39.46826172 52.97827148 C39.09775948 54.44401863 39.09775948 54.44401863 38.71977234 55.93937683 C35.8246219 66.97340635 35.8246219 66.97340635 31.75341797 69.64624023 C26.88893506 71.37799615 23.71636744 71.405839 18.55029297 70.46655273 C17.52677734 70.61479492 16.50326172 70.76303711 15.44873047 70.91577148 C1.99751383 72.81619388 -14.77778882 73.38845706 -26.44970703 65.46655273 C-32.98392561 60.08120775 -37.80552931 53.90057549 -39.44970703 45.46655273 C-40.35701118 34.19218319 -39.32065479 22.36613209 -32.57470703 12.90405273 C-23.41653276 2.21951609 -13.65892992 -0.21091716 0 0 Z M-13.44970703 28.46655273 C-15.51159022 33.43381677 -15.82445367 37.26215474 -14.44970703 42.46655273 C-12.39922259 45.05113844 -11.21472869 46.30829298 -7.94775391 46.98413086 C-6.57200195 46.99089844 -6.57200195 46.99089844 -5.16845703 46.99780273 C-4.16169922 47.00295898 -3.15494141 47.00811523 -2.11767578 47.01342773 C-1.07224609 46.99795898 -0.02681641 46.98249023 1.05029297 46.96655273 C2.6184375 46.98975586 2.6184375 46.98975586 4.21826172 47.01342773 C5.22501953 47.00827148 6.23177734 47.00311523 7.26904297 46.99780273 C8.64479492 46.99103516 8.64479492 46.99103516 10.04833984 46.98413086 C13.31452284 46.30845678 14.48118556 45.03390675 16.55029297 42.46655273 C18.52525969 37.48211292 19.0190013 33.65598884 17.55029297 28.46655273 C15.35086189 25.95098167 13.58664211 24.63870851 10.25317383 24.08496094 C7.50775541 23.92748536 4.79967704 23.92117088 2.05029297 23.96655273 C1.11314453 23.95108398 0.17599609 23.93561523 -0.78955078 23.91967773 C-6.22065757 23.95049252 -9.64431679 24.17585969 -13.44970703 28.46655273 Z " fill="#273493" transform="translate(126.44970703125,406.533447265625)"/>
<path d="M0 0 C0.74765625 -0.03738281 1.4953125 -0.07476562 2.265625 -0.11328125 C6.86572622 0.67510088 10.01211182 3.38682285 12.86816406 6.96972656 C13.49432617 7.95424805 14.12048828 8.93876953 14.765625 9.953125 C15.80589844 11.55800781 15.80589844 11.55800781 16.8671875 13.1953125 C17.57101563 14.30648438 18.27484375 15.41765625 19 16.5625 C20.41340179 18.78175553 21.83710944 20.99347359 23.265625 23.203125 C23.88727539 24.18313477 24.50892578 25.16314453 25.14941406 26.17285156 C25.67760742 26.87893555 26.20580078 27.58501953 26.75 28.3125 C27.41 28.3125 28.07 28.3125 28.75 28.3125 C30.68166479 26.24824044 32.50503546 24.1691254 34.3125 22 C34.8475415 21.36860107 35.38258301 20.73720215 35.93383789 20.08666992 C38.45297118 17.10302093 40.93773411 14.09620346 43.3671875 11.0390625 C44.13289063 10.07742188 44.89859375 9.11578125 45.6875 8.125 C46.69103516 6.83529297 46.69103516 6.83529297 47.71484375 5.51953125 C51.10489154 1.84318384 53.71211456 0.4278206 58.6875 -0.125 C62.94734994 0.04410557 65.49663122 1.52389819 68.75 4.3125 C71.08041376 7.27848115 71.04584954 10.41021234 71.2109375 14.1171875 C70.02601045 19.76065362 65.24902799 24.24070637 61.5625 28.5 C60.57868068 29.64910096 59.59561829 30.79885037 58.61328125 31.94921875 C57.8855249 32.8007251 57.8855249 32.8007251 57.14306641 33.66943359 C55.146426 36.02439152 53.19701662 38.4164417 51.25 40.8125 C47.50212202 45.4170358 43.68016556 49.95269191 39.8359375 54.4765625 C36.93755177 57.8930954 34.078449 61.33754838 31.25 64.8125 C27.00495521 70.0237109 22.68784232 75.16977516 18.328125 80.28515625 C16.76682901 82.11849623 15.21262636 83.95795443 13.671875 85.80859375 C7.67847092 92.90947467 7.67847092 92.90947467 3.75 94.3125 C-1.23152623 94.59533391 -4.33231001 94.05812312 -8.25 90.875 C-11.25323924 87.02709973 -11.73215643 84.53196264 -11.640625 79.7265625 C-10.91984361 75.2721335 -8.1747644 72.60494907 -5.25 69.3125 C-4.34478044 68.24331358 -3.44266859 67.17149155 -2.54296875 66.09765625 C-0.65189208 63.84297206 1.25015564 61.59861018 3.1640625 59.36328125 C5.40876089 56.71507968 7.59759155 54.03585248 9.75 51.3125 C8.25837012 47.02018746 5.98922258 43.52159684 3.3984375 39.83203125 C2.53794579 38.57302814 1.67860651 37.31323674 0.8203125 36.05273438 C-0.52303235 34.08793331 -1.87232719 32.12879778 -3.2421875 30.18237305 C-12.40217496 17.12575075 -12.40217496 17.12575075 -11.81152344 9.32714844 C-10.80609894 5.7198602 -8.97865462 3.84625071 -6.25 1.3125 C-3.97885524 0.17692762 -2.52706381 0.08165682 0 0 Z " fill="#273493" transform="translate(197.25,406.6875)"/>
<path d="M0 0 C2.76101146 1.82109266 4.52100548 3.04201097 6 6 C7.54805455 16.75099989 3.74416889 27.67492161 1.14453125 37.98828125 C0.64019249 40.0206871 0.13651597 42.05325739 -0.36653137 44.08598328 C-1.41974866 48.32848711 -2.48256479 52.56844171 -3.55200195 56.80688477 C-4.91929875 62.23008756 -6.25977164 67.65951559 -7.59286022 73.09121418 C-8.62528118 77.28322202 -9.67309033 81.47126762 -10.72542763 85.65831566 C-11.2260148 87.65887498 -11.72154701 89.66070643 -12.21184349 91.66381264 C-12.89913153 94.46282021 -13.60732418 97.25572878 -14.32104492 100.0480957 C-14.51813553 100.8695105 -14.71522614 101.69092529 -14.91828918 102.53723145 C-16.30752365 107.85055237 -18.1452612 111.06056692 -22 115 C-24.60184372 116.47437811 -27.01521393 116.93203523 -30 117 C-34.01314325 115.75000456 -37.42763723 114.42981703 -40 111 C-42.29065346 104.12803963 -40.6803765 97.54657379 -38.95214844 90.74169922 C-38.62528801 89.4084108 -38.62528801 89.4084108 -38.29182434 88.04818726 C-37.57387249 85.13123336 -36.84222859 82.21793027 -36.109375 79.3046875 C-35.60281042 77.26795211 -35.09673481 75.23109505 -34.59112549 73.19412231 C-33.53136398 68.93430077 -32.46460391 64.67630759 -31.39306641 60.41943359 C-30.02242175 54.97126106 -28.67100886 49.5185283 -27.32500839 44.06422234 C-26.28499227 39.86019281 -25.23396206 35.65897604 -24.17969513 31.45849991 C-23.67696146 29.44920258 -23.17783413 27.43899929 -22.68242645 25.42788315 C-21.98804975 22.61544962 -21.27869856 19.8072045 -20.56542969 16.99951172 C-20.3647438 16.17338379 -20.16405792 15.34725586 -19.95729065 14.49609375 C-18.41902397 8.53863306 -16.45579465 3.73021896 -11.25 0.0625 C-7.15391788 -1.27660377 -4.11104595 -1.26884134 0 0 Z " fill="#02A8F4" transform="translate(506,361)"/>
</svg>
